<svg xmlns="http://www.w3.org/2000/svg" viewBox="0 0 960 540" role="img" aria-labelledby="title desc">
  <title id="title">Signal Garden preview</title>
  <desc id="desc">Preview artwork for Signal Garden, a local-first board for signals.</desc>
  <defs>
    <linearGradient id="bg" x1="0" y1="0" x2="0" y2="1">
      <stop offset="0%" stop-color="#0a1020" />
      <stop offset="100%" stop-color="#050911" />
    </linearGradient>
    <linearGradient id="accent" x1="0" y1="0" x2="1" y2="0">
      <stop offset="0%" stop-color="#4ade80" />
      <stop offset="100%" stop-color="#22c55e" />
    </linearGradient>
  </defs>
  <rect width="960" height="540" fill="url(#bg)" />
  <rect x="36" y="32" width="888" height="84" rx="24" fill="#0b160f" stroke="#27593a" />
  <text x="66" y="72" font-family="Inter, Arial, sans-serif" font-size="28" fill="#eef2ff">Signal Garden</text>
  <text x="66" y="96" font-family="Inter, Arial, sans-serif" font-size="14" fill="#b7c0d9">Collect promising ideas, tag their signal strength, and decide what to nurture.</text>

  <rect x="36" y="138" width="888" height="118" rx="28" fill="#0b160f" stroke="#27593a" />
  <rect x="62" y="164" width="184" height="68" rx="18" fill="rgba(255,255,255,0.04)" stroke="#27593a" />
  <rect x="264" y="164" width="184" height="68" rx="18" fill="rgba(255,255,255,0.04)" stroke="#27593a" />
  <rect x="466" y="164" width="184" height="68" rx="18" fill="rgba(255,255,255,0.04)" stroke="#27593a" />
  <rect x="668" y="164" width="230" height="68" rx="18" fill="rgba(255,255,255,0.04)" stroke="#27593a" />
  <text x="84" y="189" font-family="Inter, Arial, sans-serif" font-size="13" fill="#b7c0d9">Signals</text>
  <text x="84" y="220" font-family="Inter, Arial, sans-serif" font-size="26" fill="#eef2ff">8</text>
  <text x="286" y="189" font-family="Inter, Arial, sans-serif" font-size="13" fill="#b7c0d9">Confidence</text>
  <text x="286" y="220" font-family="Inter, Arial, sans-serif" font-size="26" fill="#eef2ff">7.4</text>
  <text x="488" y="189" font-family="Inter, Arial, sans-serif" font-size="13" fill="#b7c0d9">Next review</text>
  <text x="488" y="220" font-family="Inter, Arial, sans-serif" font-size="26" fill="#eef2ff">04-25</text>
  <text x="690" y="189" font-family="Inter, Arial, sans-serif" font-size="13" fill="#b7c0d9">Top state</text>
  <text x="690" y="220" font-family="Inter, Arial, sans-serif" font-size="26" fill="#eef2ff">Testing</text>

  <rect x="36" y="278" width="522" height="226" rx="28" fill="#0b160f" stroke="#27593a" />
  <text x="62" y="314" font-family="Inter, Arial, sans-serif" font-size="18" fill="#eef2ff">Signals that need attention next</text>
  <text x="62" y="336" font-family="Inter, Arial, sans-serif" font-size="13" fill="#b7c0d9">Visible next test, dates, and confidence in one clean queue.</text>
  <rect x="62" y="356" width="470" height="54" rx="18" fill="rgba(255,255,255,0.04)" stroke="#27593a" />
  <text x="84" y="388" font-family="Inter, Arial, sans-serif" font-size="16" fill="#eef2ff">LinkedIn reactions from lawyers</text>
  <text x="310" y="388" font-family="Inter, Arial, sans-serif" font-size="12" fill="#d5deff">LinkedIn comments · 7/10</text>
  <rect x="62" y="422" width="470" height="54" rx="18" fill="rgba(255,255,255,0.04)" stroke="#27593a" />
  <text x="84" y="454" font-family="Inter, Arial, sans-serif" font-size="16" fill="#eef2ff">Referral partner angle</text>
  <text x="310" y="454" font-family="Inter, Arial, sans-serif" font-size="12" fill="#d5deff">Test a joint intro offer · Spotted</text>

  <rect x="584" y="278" width="340" height="226" rx="28" fill="#0b160f" stroke="#27593a" />
  <text x="610" y="314" font-family="Inter, Arial, sans-serif" font-size="18" fill="#eef2ff">Where the pattern density sits</text>
  <text x="610" y="336" font-family="Inter, Arial, sans-serif" font-size="13" fill="#b7c0d9">A quick view of category balance and the strongest confidence signal.</text>
  <rect x="610" y="360" width="288" height="18" rx="9" fill="rgba(255,255,255,0.08)" />
  <rect x="610" y="360" width="224" height="18" rx="9" fill="url(#accent)" />
  <rect x="610" y="396" width="288" height="18" rx="9" fill="rgba(255,255,255,0.08)" />
  <rect x="610" y="396" width="176" height="18" rx="9" fill="url(#accent)" opacity="0.72" />
  <rect x="610" y="432" width="288" height="18" rx="9" fill="rgba(255,255,255,0.08)" />
  <rect x="610" y="432" width="132" height="18" rx="9" fill="url(#accent)" opacity="0.54" />
</svg>
